<?xml version="1.0" encoding="UTF-8" standalone="no"?>
<!DOCTYPE svg PUBLIC "-//W3C//DTD SVG 1.1//EN" "http://www.w3.org/Graphics/SVG/1.1/DTD/svg11.dtd">
<svg xmlns="http://www.w3.org/2000/svg" version="1.1" viewBox="0.00 0.00 950.00 950.00">
<path fill="#fff" d="
  M 268.92 855.07
  A 0.83 0.82 -39.3 0 0 268.27 855.01
  L 22.56 933.72
  Q 21.60 934.02 21.93 933.07
  L 101.98 695.04
  A 0.94 0.93 -50.9 0 0 101.90 694.24
  Q 44.17 597.50 38.63 485.24
  Q 38.13 475.14 38.14 465.55
  Q 38.19 355.03 88.26 258.50
  C 128.23 181.44 190.83 116.84 266.58 74.55
  Q 352.35 26.65 450.21 19.22
  Q 498.55 15.55 548.40 22.44
  Q 558.57 23.84 568.34 25.78
  Q 668.23 45.54 747.98 104.30
  Q 826.14 161.90 873.51 246.26
  Q 903.22 299.15 917.39 357.43
  Q 943.12 463.22 917.74 569.62
  Q 915.50 579.03 912.62 588.89
  Q 888.90 670.03 837.33 736.83
  C 746.22 854.88 601.54 920.05 452.82 909.35
  Q 354.98 902.30 268.92 855.07
  Z
  M 114.19 433.90
  Q 108.49 504.36 128.75 571.47
  C 140.61 610.76 159.02 647.57 183.03 681.16
  A 2.02 2.01 -53.6 0 1 183.30 682.96
  L 137.47 819.30
  A 0.28 0.28 0.0 0 0 137.83 819.66
  L 279.33 774.34
  A 1.26 1.25 52.2 0 1 280.39 774.48
  C 329.48 806.64 385.49 827.28 443.73 833.40
  Q 539.90 843.51 628.26 806.47
  C 666.50 790.43 702.02 767.55 732.45 740.06
  C 807.12 672.62 851.76 578.19 855.19 477.71
  Q 858.51 380.77 814.52 294.66
  C 790.38 247.40 755.73 205.70 714.40 172.97
  Q 645.21 118.16 558.05 100.05
  Q 548.16 97.99 538.11 96.60
  Q 481.46 88.72 427.13 97.11
  Q 364.19 106.83 308.14 137.25
  Q 229.80 179.75 178.17 254.02
  C 141.16 307.28 119.35 370.09 114.19 433.90
  Z"
/>
<path fill="#fff" d="
  M 497.53 653.92
  Q 475.19 644.30 457.13 633.35
  C 421.10 611.50 388.84 582.66 360.92 550.59
  Q 335.81 521.74 316.81 492.69
  Q 307.61 478.63 298.67 464.79
  Q 281.93 438.87 272.03 411.93
  Q 262.24 385.28 261.38 360.22
  Q 260.89 345.94 264.31 328.36
  C 268.46 306.97 278.68 287.04 293.16 270.92
  Q 299.07 264.35 306.71 257.15
  C 315.68 248.70 327.76 244.59 340.13 246.01
  C 348.04 246.91 356.03 247.46 364.42 247.56
  Q 365.70 247.58 367.96 248.41
  C 375.42 251.14 379.86 260.48 382.38 267.37
  C 390.84 290.48 403.66 325.99 415.70 356.77
  Q 418.44 363.78 415.79 370.44
  Q 411.20 381.95 402.59 391.86
  Q 391.40 404.74 381.36 414.60
  Q 372.77 423.03 378.43 433.58
  Q 398.06 470.16 423.85 499.45
  C 450.20 529.37 482.70 553.60 519.27 570.93
  Q 526.57 574.38 533.65 577.91
  Q 539.68 580.90 546.13 578.77
  Q 549.54 577.64 553.30 573.61
  Q 572.27 553.33 585.89 536.95
  C 591.32 530.42 596.25 520.58 606.43 522.25
  Q 609.65 522.78 613.13 524.10
  Q 620.41 526.87 626.43 529.99
  Q 670.30 552.69 707.43 573.18
  C 710.80 575.04 715.14 578.33 715.59 582.53
  C 716.20 588.16 715.96 594.17 715.16 599.81
  Q 712.75 616.82 705.57 634.53
  C 702.13 643.02 694.35 651.15 686.81 657.22
  Q 665.45 674.41 639.17 682.61
  Q 634.23 684.15 629.57 684.57
  C 622.63 685.19 615.89 686.58 609.13 687.69
  Q 603.11 688.69 591.49 686.75
  C 576.14 684.20 561.40 679.16 546.53 673.63
  Q 522.92 664.85 497.53 653.92
  Z"
/>
</svg>
